<svg width="1077" height="1075" viewBox="0 0 1077 1075" fill="none" xmlns="http://www.w3.org/2000/svg">
<path d="M1001.85 537.328C1001.85 520.465 1000.9 503.833 999.112 487.441L1068 459.865C1063.94 432.463 1057.79 405.743 1049.67 379.871L975.473 384.607C964.144 352.882 949.39 322.775 931.641 294.698L981.614 240.307C966.021 217.611 948.686 196.185 929.831 176.204L865.122 212.279C841.261 188.822 814.849 167.926 786.311 150.023L807.467 79.5482C783.674 65.8517 758.735 53.8973 732.795 43.9064L690.3 104.217C658.913 93.4565 625.957 85.949 591.922 82.0893L580.074 9.51586C566.396 8.47635 552.584 7.94702 538.609 7.94702C524.662 7.94702 510.831 8.47635 497.144 9.51586L485.314 82.0893C451.251 85.949 418.324 93.4565 386.927 104.217L344.432 43.9064C318.492 53.9069 293.544 65.8421 269.76 79.5482L290.906 150.023C262.368 167.916 235.957 188.832 212.096 212.279L147.386 176.204C128.531 196.185 111.196 217.611 95.6129 240.307L145.577 294.698C127.828 322.775 113.082 352.882 101.744 384.607L27.5438 379.871C19.4202 405.743 13.2698 432.463 9.20801 459.865L78.1048 487.441C76.3049 503.833 75.3616 520.465 75.3616 537.328C75.3616 554.192 76.3145 570.824 78.1048 587.215L9.20801 614.791C13.2698 642.194 19.4299 668.913 27.5438 694.786L101.744 690.05C113.082 721.775 127.828 751.882 145.577 779.958L95.6129 834.369C111.196 857.046 128.531 878.481 147.386 898.463L212.096 862.388C235.957 885.835 262.368 906.74 290.906 924.634L269.76 995.118C293.544 1008.81 318.492 1020.77 344.432 1030.76L386.927 970.449C418.324 981.21 451.251 988.708 485.314 992.568L497.144 1065.15C510.831 1066.19 524.652 1066.72 538.609 1066.72C552.575 1066.72 566.396 1066.19 580.074 1065.15L591.922 992.568C625.957 988.708 658.913 981.21 690.3 970.449L732.795 1030.76C758.735 1020.77 783.674 1008.82 807.467 995.128L786.311 924.634C814.859 906.75 841.271 885.835 865.122 862.388L929.831 898.463C948.686 878.481 966.021 857.056 981.614 834.369L931.631 779.958C949.389 751.882 964.144 721.775 975.473 690.05L1049.67 694.786C1057.8 668.913 1063.94 642.194 1068 614.791L999.112 587.215C1000.9 570.833 1001.85 554.192 1001.85 537.328ZM538.618 936.328C315.893 936.328 135.326 757.686 135.326 537.338C135.326 316.99 315.903 138.338 538.618 138.338C761.363 138.338 941.93 316.99 941.93 537.338C941.93 757.686 761.363 936.328 538.618 936.328Z" fill="#CBA33A" stroke="#6D4F00" stroke-width="15.2631"/>
</svg>
