<svg width="97" height="85" viewBox="0 0 97 85" fill="none" xmlns="http://www.w3.org/2000/svg">
<path fill-rule="evenodd" clip-rule="evenodd" d="M82.6975 0C82.755 0 83.3115 0.172686 83.9446 0.402935C84.5778 0.613995 85.1534 0.863431 85.2494 0.920993C85.3261 0.997743 85.4413 1.65011 85.4988 2.39842C85.5372 3.12754 85.6139 3.76072 85.6331 3.77991C85.6523 3.7991 86.0936 3.54966 86.6309 3.20429C87.1489 2.8781 87.6286 2.53273 87.6862 2.43679C87.7437 2.36005 88.0316 2.34086 88.3577 2.41761C88.6647 2.49436 89.2979 2.85892 89.7392 3.24266C90.3148 3.74154 90.5451 4.08691 90.5643 4.45147C90.5643 4.75847 90.43 5.27652 90.2573 5.60271C90.0846 5.94808 89.7968 6.38939 89.6241 6.58126C89.3363 6.90745 89.3555 6.92664 89.9311 6.90745C90.2765 6.90745 90.8713 7.06095 91.255 7.23363C91.6388 7.42551 92.0801 7.80926 92.2144 8.09707C92.3679 8.40406 92.483 8.86456 92.483 9.15237C92.483 9.45937 92.2911 9.99661 92.0609 10.3612C91.8115 10.7257 91.2742 11.1862 90.8521 11.3973C90.43 11.5892 89.9119 12.0305 89.7009 12.3567C89.4898 12.6828 88.9525 13.1242 88.5112 13.3352C88.0699 13.5463 87.5135 14.026 87.2641 14.3905C87.0146 14.7551 86.4966 15.2156 86.0936 15.3883C85.7099 15.5801 85.3837 15.8679 85.3837 16.0214C85.3837 16.1749 85.1535 16.5779 84.8465 16.9041C84.5586 17.2494 84.1173 17.614 83.8487 17.7675C83.5801 17.9018 82.4864 18.0361 81.316 18.0745C79.4548 18.1321 79.2246 18.0937 78.0925 17.2686L77.2866 17.9786C76.8261 18.3815 75.4446 19.6287 74.2167 20.7607C72.7584 22.0847 71.8758 22.7754 71.7223 22.6795C71.5688 22.6027 71.5304 22.6219 71.6072 22.737C71.6839 22.833 70.9164 23.7156 69.8803 24.6558C68.8634 25.6151 67.2325 27.0734 66.2923 27.9176C65.3329 28.7427 64.22 29.7596 63.7979 30.1817C63.3758 30.6038 62.1094 31.7743 60.9774 32.7912C59.8453 33.8081 58.9627 34.6907 59.0011 34.7675C59.0586 34.8634 59.2505 34.921 59.4232 34.921C59.6151 34.9018 60.018 35.1129 60.325 35.3431C60.632 35.5926 61.0349 35.9955 61.2268 36.2641C61.4187 36.5327 61.7065 37.3002 61.8792 37.991C62.0902 38.7777 62.3972 39.4492 62.7426 39.8138C63.0304 40.1208 63.4142 40.6772 63.5869 41.0034C63.7595 41.3488 63.8939 42.0011 63.8939 42.4424C63.8939 42.9605 63.702 43.6512 63.3758 44.3036C63.0688 44.8792 62.4548 45.6851 61.9751 46.088C61.4954 46.491 60.6704 46.9707 59.1354 47.4887L61.8408 49.7912C63.3374 51.0576 64.7765 52.228 65.0451 52.4007C65.3137 52.5734 65.9661 53.1298 66.5033 53.6479C67.0406 54.1659 68.211 55.1828 69.0744 55.9312C69.9571 56.6603 71.0699 57.6196 71.5496 58.061C72.0485 58.4831 72.6241 58.9628 72.8352 59.1163C73.0654 59.2698 73.9097 59.9797 74.7347 60.728C75.5406 61.4571 76.4232 62.2054 76.6534 62.3589C76.9029 62.5124 78.2652 63.6637 79.7042 64.8917C81.1433 66.1388 82.448 67.1558 82.6015 67.1558C82.851 67.1558 82.8701 66.9063 82.755 65.5632C82.6591 64.316 82.6975 63.9515 82.9085 63.8172C83.1004 63.6828 83.2923 63.7788 83.5993 64.2009C83.8295 64.5079 86.5541 68.2878 89.6433 72.5858C92.7325 76.8837 95.6297 80.9898 96.0711 81.6998C96.5124 82.4097 96.8385 83.0045 96.781 83.0237C96.7426 83.0621 92.7133 81.0666 87.8205 78.5914C82.9469 76.1354 78.3036 73.7562 77.5169 73.3149C76.7302 72.8736 75.9051 72.3363 75.3103 71.7415L75.6941 71.4537C75.9243 71.281 76.5191 71.1851 77.2291 71.1851C77.8623 71.1851 78.4954 71.1084 78.6297 71.0316C78.7641 70.9549 78.8216 70.763 78.7641 70.6095C78.7257 70.456 76.8837 68.8059 74.7155 66.9639C72.5282 65.1219 70.3408 63.2607 69.8419 62.8386C69.3623 62.4165 68.3069 61.5339 67.5203 60.8815C66.7336 60.2291 65.448 59.1546 64.6422 58.4831C63.8363 57.8115 61.5722 55.912 59.6151 54.2427C57.6388 52.5926 56.0079 51.2302 55.9695 51.2302C55.9503 51.2302 55.9503 51.7291 55.9887 52.3239C56.027 53.0531 55.9119 53.8781 55.6625 54.7224C55.4322 55.4515 55.2595 56.3533 55.2595 56.737C55.2595 57.14 55.3747 57.7348 55.509 58.0801C55.7009 58.579 55.7009 58.7325 55.4514 59.0011C55.2979 59.1738 54.8758 59.3081 54.492 59.3081C54.0507 59.3081 53.4943 59.0779 52.8611 58.6749C52.3431 58.3296 51.7099 57.7348 51.4604 57.3702C51.211 57.0056 50.9616 56.4876 50.904 56.219C50.8464 55.9503 50.386 55.2212 49.8871 54.588C49.3882 53.9549 48.8893 53.2641 48.7742 53.053C48.5632 52.6885 48.544 52.6885 48.4097 53.149C48.3329 53.4176 48.0259 54.0508 47.7381 54.588C47.4311 55.1061 47.0665 55.7968 46.913 56.123C46.7595 56.43 46.5485 57.044 46.4525 57.4661C46.3566 57.8883 45.8769 58.7325 45.3972 59.3273C44.9176 59.9413 44.3227 60.4977 44.0733 60.5553C43.8431 60.6129 43.3634 60.6129 43.018 60.5553C42.6918 60.4977 42.1354 60.2291 41.8284 59.9605C41.5022 59.6919 41.176 59.193 41.0801 58.8476C41.0033 58.5214 40.965 57.754 41.0225 57.1783C41.0801 56.4108 41.0033 55.7585 40.6772 54.7799C40.4277 54.0316 40.1783 53.0339 40.0056 51.6524L37.2234 54.1275C35.6884 55.509 32.5993 58.272 30.3352 60.3059C28.0902 62.3397 25.3081 64.8533 24.176 65.9086C23.0632 66.9639 21.413 68.4605 20.5112 69.228C19.6286 69.9955 18.7844 70.8205 18.6501 71.0508C18.4198 71.3962 18.4198 71.4921 18.6501 71.6072C18.7844 71.684 19.3984 71.7607 19.9932 71.7607C20.6072 71.7607 21.1444 71.8375 21.202 71.9526C21.2595 72.0485 21.0485 72.3747 20.7415 72.6625C20.4153 72.9695 18.9571 73.9481 17.4796 74.8691C15.983 75.8093 13.1049 77.5169 11.0711 78.7066C9.05639 79.8962 5.73697 81.8341 3.74149 83.0045C1.72682 84.1941 0.0767035 85.0768 0.0383288 84.9808C0.0191415 84.8849 0.479638 84.079 1.05526 83.1772C1.63088 82.2754 2.01463 81.6422 2.11056 81.4503C2.59025 80.6828 4.20199 78.0542 6.96497 74.14C9.72794 70.2257 12.2991 66.5801 12.6636 66.0429C13.0282 65.4865 13.4695 65.0068 13.623 64.9492C13.7765 64.8725 14.0259 64.9876 14.1602 65.1795C14.2945 65.3713 14.3905 66.0237 14.3905 66.6185C14.3905 67.4819 14.448 67.7314 14.6783 67.7314C14.8318 67.7314 15.6377 67.1558 16.4435 66.4458C17.2686 65.7359 18.7076 64.4695 19.6478 63.6253C20.588 62.7619 22.8905 60.6896 24.7325 59.0203C26.5936 57.3318 28.5316 55.5666 29.0688 55.1061C29.5869 54.6264 30.623 53.667 31.3713 52.9763C32.1004 52.2664 33.597 50.8849 36.667 48.0643L35.5541 47.4887C34.8634 47.1242 34.2494 46.6253 33.9232 46.1456C33.597 45.6659 33.29 44.86 33.1173 44.035C32.983 43.2867 32.7528 42.0779 32.6185 41.3488C32.4842 40.6005 32.4266 39.6603 32.4842 39.2382C32.5609 38.816 32.8103 38.2596 33.0598 37.991C33.3092 37.7223 33.9232 37.1084 34.4221 36.5903C35.0169 35.9763 35.5733 35.6117 37.0124 35.2088L34.7866 33.2901C33.5586 32.2348 32.0812 30.9876 31.4864 30.5079C30.8916 30.0282 27.8216 27.4571 24.6557 24.8093C21.4898 22.1422 18.4966 19.6095 17.0767 18.4199L16.3476 18.8995C15.6952 19.36 15.465 19.3984 13.527 19.3984C11.6467 19.3984 11.3397 19.3409 10.7449 18.9571C10.3803 18.7077 9.90063 18.1512 9.68957 17.7099C9.45932 17.2302 9.13314 16.8657 8.86451 16.8081C8.63427 16.7506 8.17377 16.4628 7.84758 16.1558C7.50221 15.8679 7.15684 15.4458 7.08009 15.1964C6.96497 14.9278 6.69634 14.7359 6.33178 14.6783C6.0056 14.6208 5.44916 14.2754 5.0846 13.9108C4.72004 13.5463 4.41305 13.105 4.41305 12.9515C4.41305 12.7788 4.24036 12.6637 3.97174 12.6637C3.74149 12.6637 3.28099 12.491 2.97399 12.2991C2.64781 12.1072 2.24488 11.6275 2.053 11.2438C1.88032 10.86 1.72682 10.2844 1.72682 9.97743C1.72682 9.59368 1.93788 9.19074 2.34081 8.74944C2.83968 8.25056 3.18506 8.07788 4.89273 7.82844L4.4898 7.42551C4.25955 7.19526 3.97174 6.81151 3.85661 6.56208C3.74149 6.33183 3.64555 5.98646 3.64555 5.79458C3.62636 5.60271 3.64555 4.98871 3.97174 4.60497C4.31711 4.45147 4.81598 4.02935 5.31485 3.6456C5.83291 3.24266 6.7539 3.45372 6.81147 3.45372C6.86903 3.45372 7.11846 3.6456 7.3679 3.87585C7.61734 4.12528 8.09702 4.47065 9.01801 4.98871L9.05639 3.87585C9.05639 3.28104 9.09476 2.68623 9.11395 2.59029C9.15232 2.47517 9.17151 2.2833 9.1907 2.14898C9.1907 2.03386 9.67038 1.70767 10.2076 1.43905C10.7641 1.17043 11.3972 0.959368 11.6083 0.959368C11.8194 0.959368 12.3182 1.2088 12.702 1.53499C13.1049 1.84199 13.4695 2.2833 13.527 2.49436C13.5846 2.70542 13.9875 3.05079 14.4288 3.24266C14.9661 3.4921 15.4074 3.87585 15.676 4.35553C15.9063 4.75847 16.1173 5.21896 16.1173 5.37246C16.1173 5.52596 16.5203 5.83296 17 6.04402C17.5372 6.27427 18.0361 6.65801 18.2279 7.00339C18.4582 7.36795 18.8036 7.63657 19.2065 7.73251C19.5711 7.82844 20.1275 8.17381 20.4537 8.5C20.9334 8.99887 21.0869 9.34424 21.202 10.2652C21.2787 10.8984 21.3171 11.8962 21.2595 12.4718C21.202 13.0474 21.0293 13.7381 20.8566 14.0068C20.6647 14.2754 20.5304 14.544 20.5304 14.6208C20.5304 14.7167 21.509 15.5801 22.6794 16.5779C23.869 17.5564 26.8814 20.07 29.3566 22.1614C31.8318 24.2528 34.1151 26.1907 34.4413 26.4977C34.7483 26.7856 36.3984 28.1862 38.0869 29.6253C39.7753 31.0451 41.176 32.1964 41.1952 32.1772C41.2144 32.158 41.1568 31.8318 41.0609 31.4673C40.9458 31.1027 40.869 30.4312 40.869 29.9707C40.869 29.5293 40.9841 28.9345 41.1376 28.6275C41.2911 28.3397 41.6173 27.9176 41.8668 27.7065C42.097 27.4763 42.6726 27.1117 43.1139 26.8815C43.5744 26.6704 44.4762 26.3442 45.1286 26.1907C45.8002 26.0372 47.1433 25.9029 48.1027 25.9029C49.0812 25.9029 50.3476 25.9989 50.8848 26.114C51.4413 26.2291 52.3239 26.5553 52.8419 26.8431C53.4367 27.1501 53.9356 27.6298 54.2234 28.1095C54.5304 28.6275 54.6839 29.184 54.6839 29.8363C54.6839 30.3544 54.588 31.1027 54.3002 32.1388L54.9142 31.544C55.2595 31.237 56.5451 30.0666 57.7539 28.9729C58.9627 27.8792 60.9582 26.0564 62.167 24.9436C63.3758 23.8115 66.1963 21.2596 68.4221 19.2641C70.6286 17.2686 72.9503 15.1964 74.6772 13.719L74.2742 13.0474C73.9288 12.4718 73.8713 12.0688 73.8713 10.4571C73.8905 8.92212 73.948 8.42325 74.2358 7.96275C74.4277 7.63657 74.9074 7.23363 75.2911 7.04176C75.6749 6.86907 76.0395 6.71558 76.1162 6.71558C76.2121 6.69639 76.4424 6.42777 76.6534 6.08239C76.8645 5.73702 77.3826 5.29571 77.7855 5.08465C78.3036 4.81603 78.5722 4.50903 78.7257 4.02935C78.86 3.6456 79.0902 3.1851 79.2437 2.99323C79.3972 2.80135 79.8577 2.47517 80.2415 2.2833C80.6444 2.07223 81.009 1.74605 81.0665 1.53499C81.1241 1.32393 81.4887 0.882619 81.8724 0.575621C82.2753 0.249436 82.6399 0 82.6975 0ZM82.6399 4.56659C82.7358 5.52596 82.8702 6.33183 82.9853 6.35102C83.0812 6.35102 83.2923 6.23589 83.4074 6.10158C83.5801 5.92889 83.6376 5.25734 83.5993 3.9526C83.5801 2.72461 83.4841 2.01467 83.3498 1.9763C83.2155 1.93792 82.9853 2.09142 82.8126 2.34086C82.544 2.70542 82.5248 3.06998 82.6399 4.56659ZM10.8984 4.96953C10.9176 6.56208 10.9751 6.84989 11.3205 7.1377C11.5316 7.32957 11.781 7.4447 11.8961 7.38713C12.0112 7.32957 12.088 6.5237 12.088 5.56433C12.088 4.60497 12.0112 3.68397 11.9153 3.4921C11.8386 3.31941 11.6275 3.10835 11.4548 3.0316C11.2821 2.95485 11.0902 2.95485 11.0135 3.01242C10.9367 3.08916 10.8792 3.9526 10.8984 4.96953ZM80.3758 6.27427C80.395 7.09932 80.4909 7.90519 80.5869 8.05869C80.7212 8.28894 80.8363 8.28894 81.1049 8.13544C81.3927 7.94357 81.4503 7.63657 81.4503 6.02483C81.4503 4.41309 81.3927 4.12528 81.1433 4.06772C80.9514 4.02935 80.7212 4.18284 80.5869 4.39391C80.4525 4.60497 80.3758 5.41084 80.3758 6.27427ZM84.904 7.02257C83.9446 7.84763 81.4311 10.1309 79.2821 12.088L75.3871 15.6377L76.4616 16.4628C77.2099 15.7912 79.5316 13.6998 82.1218 11.3781C84.7121 9.05643 87.2257 6.71558 87.7246 6.17833C88.2426 5.6219 88.6455 5.0079 88.6455 4.79684C88.6455 4.58578 88.588 4.41309 88.4921 4.41309C88.4153 4.41309 87.974 4.66253 87.4943 4.95034C87.0146 5.25734 85.8442 6.17833 84.904 7.02257ZM13.1049 7.48307C13.1817 8.59594 13.2776 8.97968 13.5462 9.17156C13.7573 9.30587 13.9875 9.38262 14.1027 9.34424C14.1986 9.30587 14.3137 8.5 14.3521 7.55982C14.3713 6.29345 14.3137 5.73702 14.1027 5.41084C13.9492 5.18059 13.6805 4.98871 13.527 4.98871C13.3735 4.98871 13.1817 5.21896 13.1241 5.50677C13.0474 5.81377 13.0474 6.69639 13.1049 7.48307ZM6.56203 7.15688C7.23359 7.82844 10.3228 10.4955 13.4311 13.105L19.0914 17.8251C19.7629 17.1727 19.9548 16.9233 19.9548 16.8273C19.9548 16.7506 17.6907 14.7935 14.9085 12.4526C12.1456 10.1117 9.0372 7.57901 8.00108 6.79233C6.98415 6.00564 5.96722 5.37246 5.75616 5.37246C5.5451 5.37246 5.37241 5.50677 5.37241 5.66027C5.37241 5.81377 5.90966 6.48533 6.56203 7.15688ZM78.0541 8.99887C78.1309 9.76637 78.246 10.4379 78.3228 10.4763C78.4187 10.5147 78.6681 10.3995 78.8792 10.2077C79.2437 9.91987 79.2821 9.74718 79.1862 8.38488C79.1094 7.04176 79.0519 6.90745 78.6873 6.90745C78.4762 6.90745 78.2076 7.06095 78.1117 7.23363C77.9966 7.4447 77.9774 8.17382 78.0541 8.99887ZM15.6952 9.44018C15.7144 10.4763 15.8295 11.0327 16.0214 11.2246C16.1749 11.3781 16.4435 11.5124 16.597 11.5124C16.8273 11.5124 16.8848 11.2246 16.8273 9.8623C16.7889 8.42325 16.7313 8.17382 16.386 7.94357C16.1749 7.79007 15.9255 7.73251 15.8295 7.80926C15.7336 7.86682 15.676 8.61512 15.6952 9.44018ZM75.6173 10.6874C75.6557 11.4357 75.7708 12.1264 75.8476 12.2223C75.9243 12.2991 76.1546 12.2799 76.3273 12.1648C76.5959 11.9921 76.6534 11.6467 76.6534 10.3612C76.6534 9.36343 76.5767 8.73025 76.4424 8.69187C76.3273 8.6535 76.0778 8.76862 75.886 8.9605C75.6173 9.24831 75.5598 9.55531 75.6173 10.6874ZM86.9762 9.82393C87.0722 10.0542 87.2449 10.1309 87.5327 10.0734C87.7821 10.0158 88.4729 9.97743 89.0677 9.97743C89.7584 9.97743 90.2573 9.88149 90.4492 9.68962C90.6218 9.53612 90.7178 9.30587 90.6602 9.20993C90.6027 9.09481 89.8927 9.01806 89.0677 9.01806C88.2042 9.01806 87.4367 9.114 87.2257 9.24831C86.9954 9.42099 86.8995 9.61287 86.9762 9.82393ZM18.1896 11.167C18.2088 11.877 18.3047 12.6445 18.4198 12.8555C18.5158 13.0666 18.7844 13.2393 18.9954 13.2393C19.3408 13.2393 19.3792 13.105 19.3792 11.6467C19.3792 10.6298 19.3024 9.99661 19.1489 9.82393C19.0146 9.68962 18.8036 9.59368 18.6884 9.59368C18.5733 9.59368 18.4198 9.65124 18.3239 9.72799C18.2279 9.78555 18.1704 10.4379 18.1896 11.167ZM4.12524 10.9368C4.39386 11.0327 5.19973 11.1287 5.94803 11.1287C6.96496 11.1287 7.31034 11.0519 7.38709 10.8409C7.44465 10.6874 7.3679 10.4187 7.23359 10.2652C7.0609 10.035 6.61959 9.95824 5.31485 9.97743C3.77986 9.97743 3.64555 10.0158 3.64555 10.3612C3.64555 10.5914 3.83743 10.8217 4.12524 10.9368ZM84.386 11.9729C84.4627 12.0688 85.211 12.088 86.1512 12.0113C87.053 11.9345 87.8972 11.7619 88.0315 11.6467C88.1659 11.5124 88.281 11.3014 88.2618 11.167C88.2618 10.9944 87.7821 10.9368 86.5349 10.9368C84.9808 10.9368 84.8081 10.9752 84.5395 11.3589C84.386 11.6084 84.3092 11.877 84.386 11.9729ZM6.37016 12.8172C6.54284 12.9707 7.23359 13.0474 8.48077 13.0474C9.86226 13.0474 10.3611 12.9898 10.3611 12.798C10.3803 12.6828 10.2268 12.4142 10.0349 12.2415C9.76632 11.9729 9.32501 11.8962 7.90515 11.8962C6.35097 11.8962 6.13991 11.9345 6.13991 12.2223C6.13991 12.4142 6.23585 12.6828 6.37016 12.8172ZM82.3521 13.2968C82.2178 13.4312 82.1027 13.6422 82.1218 13.7573C82.1218 13.93 82.5823 14.0068 83.6952 14.0068C85.0575 14.026 85.3261 13.9684 85.6139 13.623C85.8058 13.412 85.9209 13.1433 85.8634 13.0474C85.8058 12.9323 85.5372 12.8747 85.2302 12.8939C84.9424 12.9131 84.2325 12.9515 83.6568 13.009C83.0812 13.0474 82.4864 13.1817 82.3521 13.2968ZM8.59589 14.4097C8.61508 14.5056 8.76858 14.7167 8.92208 14.8702C9.13314 15.0813 9.6512 15.158 10.9367 15.158C11.8961 15.158 12.702 15.0813 12.7595 14.9661C12.8171 14.851 12.6828 14.6016 12.4717 14.3905C12.1456 14.0643 11.8386 14.0068 10.5914 14.026C9.78551 14.026 8.97964 14.0835 8.82614 14.1411C8.69183 14.1795 8.5767 14.3138 8.59589 14.4097ZM79.7042 16.2133C79.8385 16.5779 79.9345 16.5971 81.5078 16.4436C82.7358 16.3284 83.2347 16.1941 83.4266 15.9639C83.5609 15.7912 83.6568 15.5801 83.6568 15.4842C83.6568 15.4074 82.9085 15.3499 81.9683 15.3499C80.9514 15.3499 80.1455 15.4458 79.9345 15.5801C79.6851 15.7528 79.6083 15.9447 79.7042 16.2133ZM11.4164 17.2111C11.6851 17.614 11.8386 17.6524 13.527 17.6524C15.2155 17.6524 15.3498 17.6332 15.3498 17.2686C15.3498 17.0576 15.1772 16.7889 14.9661 16.693C14.755 16.5779 13.8532 16.5011 12.9514 16.5011C12.0688 16.5011 11.3013 16.5587 11.2437 16.6354C11.1862 16.7314 11.2629 16.9808 11.4164 17.2111ZM51.1918 37.9526C51.0191 38.3363 50.9424 38.7777 50.9999 38.912C51.0767 39.0463 51.1918 39.1422 51.2686 39.1038C51.3645 39.0655 54.3385 36.4176 57.9074 33.1941L64.4119 27.342C63.4909 26.9582 63.1647 26.8623 63.088 26.8623C63.0112 26.8623 60.3826 29.2032 57.2358 32.0429C53.1489 35.7461 51.4221 37.4345 51.1918 37.9526ZM44.2268 28.1862C43.9006 28.3205 43.4593 28.6084 43.2099 28.8386C42.9413 29.1072 42.7878 29.491 42.7878 29.8747C42.7878 30.2201 43.0948 31.4289 43.4593 32.5609C44.0925 34.4989 44.2268 34.7291 45.3781 35.9187C46.0688 36.6479 46.702 37.2235 46.8171 37.2235C46.913 37.2235 47.0857 37.0508 47.2009 36.8397C47.2968 36.6287 47.3927 36.0914 47.3927 35.6309C47.3927 35.1896 47.1625 34.2111 46.913 33.4819C46.6444 32.7336 46.299 31.947 46.1455 31.6975C45.9921 31.4673 45.6851 31.2754 45.474 31.2754C45.2437 31.2754 45.0519 31.4289 44.9943 31.6591C44.9367 31.8702 44.8024 32.0429 44.7065 32.0429C44.5914 32.0429 44.3611 31.8126 44.1501 31.5056C43.9582 31.2178 43.7471 30.8149 43.6704 30.6038C43.5936 30.3544 43.6704 30.0474 43.9006 29.7404C44.0925 29.4718 44.6873 29.1072 45.2054 28.9154C45.8194 28.7043 46.702 28.5892 47.7765 28.5892C48.6783 28.5892 49.6952 28.6659 50.0214 28.781C50.3668 28.877 50.6546 29.1072 50.6546 29.2607C50.6546 29.4142 50.4819 29.8747 50.29 30.2585C50.0214 30.7765 49.8679 31.64 49.7528 33.1558C49.6185 35.1321 49.6185 35.3047 49.9255 35.3047C50.1173 35.3047 50.5203 34.9977 50.8465 34.6332C51.1534 34.2686 51.5948 33.6354 51.7866 33.2325C51.9785 32.8488 52.2855 32.0429 52.4582 31.4673C52.6309 30.8916 52.7652 30.0858 52.7652 29.6828C52.7652 29.2032 52.6309 28.8194 52.3239 28.5124C52.0936 28.2822 51.5564 27.956 51.1343 27.8217C50.7121 27.6874 49.5033 27.553 48.448 27.5147C47.22 27.4763 46.2223 27.5339 45.6659 27.7065C45.1862 27.86 44.5338 28.0711 44.2268 28.1862ZM32.2155 28.877C39.4492 34.9977 41.79 36.9357 42.0778 37.1467C42.4232 37.377 42.6726 37.4537 42.8069 37.3194C42.9221 37.2043 42.9221 36.9165 42.7878 36.5519C42.6534 36.149 41.2528 34.8442 37.895 31.9853C35.3047 29.798 33.1749 28.0135 33.1365 28.0135C33.0981 28.0135 32.8679 28.2054 32.6377 28.4357L32.2155 28.877ZM48.1027 31.6783C48.141 31.7167 48.1602 31.4865 48.1602 31.1411C48.1602 30.6422 48.0835 30.5271 47.7765 30.5271C47.3927 30.5271 47.3927 30.5271 47.7189 31.0451C47.8916 31.333 48.0643 31.6208 48.1027 31.6783ZM57.3126 37.4345C57.562 37.4345 58.0033 37.5497 58.3295 37.7223C58.6941 37.895 58.9435 38.202 59.0203 38.5282C59.0778 38.816 59.193 39.43 59.3081 39.8713C59.404 40.3126 59.4808 40.8883 59.4808 41.1185C59.4808 41.3488 59.2889 41.7325 59.0586 41.9628C58.8092 42.193 58.3103 42.5192 57.9458 42.7111C57.5812 42.8837 56.641 43.0948 55.8544 43.1524C55.0869 43.2291 54.4153 43.3442 54.3769 43.421C54.3385 43.4977 54.5304 43.7472 54.8182 43.9582C55.1252 44.1693 55.7009 44.4379 56.123 44.553C56.5451 44.6682 57.1399 44.9368 57.4661 45.1479C57.9266 45.4549 58.2144 45.5124 58.9051 45.4357C59.4424 45.3589 60.018 45.1095 60.4401 44.7641C60.8047 44.4571 61.3036 43.8623 61.553 43.4594C61.8408 42.9605 61.9559 42.5192 61.8792 42.1738C61.8216 41.886 61.4379 41.2336 61.0349 40.7348C60.5361 40.1208 60.2291 39.4876 60.0756 38.816C59.9604 38.2596 59.7494 37.5689 59.5959 37.281C59.4616 36.9932 59.193 36.6862 59.0203 36.6095C58.8476 36.5327 58.5981 36.4752 58.4638 36.4752C58.3295 36.4752 57.9266 36.6862 57.562 36.9549C56.9672 37.377 56.9288 37.4345 57.3126 37.4345ZM35.4966 38.1061C35.4966 38.202 35.8611 38.5282 36.3024 38.816C36.7629 39.1038 37.5112 39.6027 37.9909 39.9097C38.6049 40.3126 39.1805 40.5045 40.0056 40.5813C40.6388 40.658 41.579 40.8115 42.1162 40.965C42.8453 41.1761 43.1331 41.1761 43.325 41.0034C43.4593 40.8883 43.5553 40.5621 43.5553 40.3126C43.5553 40.044 43.325 39.5451 43.0756 39.1998C42.7878 38.8352 42.0203 38.298 41.1952 37.895C40.0823 37.3386 39.5259 37.1851 38.2787 37.1084C36.8972 37.0124 36.6862 37.0508 36.1297 37.4537C35.7844 37.7032 35.4966 37.991 35.4966 38.1061ZM47.4311 39.526C47.1241 40.1208 46.7595 40.6196 46.606 40.658C46.4525 40.6772 46.2799 40.5045 46.2031 40.2743C46.1264 40.0248 46.1264 39.6027 46.1839 39.3341C46.299 38.8928 46.2799 38.8928 45.9537 39.1614C45.7618 39.3149 45.4932 39.7178 45.3397 40.0632C45.2054 40.4086 45.0902 41.0993 45.0902 41.5982C45.0902 42.0971 45.2629 42.8646 45.4548 43.2675C45.6467 43.6896 45.9537 44.1693 46.1264 44.3228C46.4334 44.5914 46.4909 44.5914 46.6444 44.3228C46.7404 44.1693 46.8171 43.9582 46.8171 43.8623C46.7979 43.7472 46.9514 43.5169 47.1433 43.3251C47.4119 43.0564 47.527 43.0372 47.6997 43.2291C47.8149 43.3634 48.2178 44.035 48.6015 44.7065C48.9661 45.3973 49.465 46.1648 49.676 46.395C49.9255 46.6637 50.3092 46.8172 50.6546 46.8172H51.2302C50.079 44.6682 49.6376 43.5745 49.5033 42.9989C49.3498 42.3081 49.2923 41.1953 49.3498 39.8713C49.4458 37.991 49.4266 37.8183 49.1196 37.8183C48.9277 37.8183 48.6015 37.9526 48.3713 38.1445C48.141 38.3363 47.7189 38.9503 47.4311 39.526ZM54.8374 39.0079C54.8566 39.3725 55.0101 39.5643 55.2979 39.6603C55.5474 39.7178 56.0462 39.6986 56.4108 39.6411L57.0823 39.5068C56.0462 39.0079 55.6433 38.6817 55.5282 38.4323C55.3555 38.1061 55.2595 38.0677 55.0485 38.2404C54.9142 38.3555 54.8182 38.7009 54.8374 39.0079ZM34.6139 40.965C34.7674 41.6174 34.9401 42.5959 34.9977 43.1716C35.0553 43.7856 35.3047 44.5147 35.5541 44.8984C35.7844 45.2822 36.2449 45.7043 36.5519 45.8578C36.8781 46.0113 37.5112 46.1456 37.9909 46.1456C38.4706 46.1456 39.1997 45.9729 39.6218 45.7619C40.044 45.5508 40.8307 44.9752 41.3871 44.4763C42.2505 43.7088 42.3656 43.5169 42.1546 43.2675C42.0395 43.114 41.6557 42.9797 41.3487 42.9797C40.9074 42.9797 40.4853 43.2483 39.4683 44.2269C38.7584 44.9176 38.0101 45.474 37.799 45.474C37.5496 45.474 37.3002 45.2438 37.0891 44.86C36.9164 44.5147 36.7054 43.5361 36.6286 42.7111C36.4751 41.1953 36.4367 41.1377 35.5541 40.2551C35.0361 39.7562 34.5756 39.3341 34.4796 39.3341C34.4029 39.3341 34.3453 39.4492 34.3453 39.5835C34.3453 39.7178 34.4604 40.351 34.6139 40.965ZM52.2279 41.4831C52.2663 41.8284 52.4006 42.1163 52.5158 42.1546C52.6501 42.193 52.8995 42.0011 53.053 41.7517C53.2449 41.4319 53.2896 41.1057 53.1873 40.7731C53.053 40.3318 53.0146 40.3126 52.6117 40.5813C52.3047 40.7923 52.2088 41.0418 52.2279 41.4831ZM55.9887 41.4063C56.0078 41.5406 56.2189 41.6941 56.4492 41.7517C56.6986 41.8093 57.1207 41.7709 57.4085 41.6558C57.7539 41.5214 57.9266 41.3296 57.8882 41.1185C57.869 40.8883 57.6388 40.7731 57.1783 40.7348C56.8137 40.6964 56.3724 40.7731 56.2189 40.9074C56.0654 41.0418 55.9695 41.2528 55.9887 41.4063ZM52.1512 45.6084C52.3239 45.8386 59.1738 51.6524 67.3476 58.5406C75.5214 65.4097 82.3329 71.2043 82.448 71.3962C82.5823 71.6072 82.6591 71.8567 82.6015 71.9718C82.544 72.0677 82.237 72.2212 81.93 72.298C81.6038 72.3747 81.3352 72.5282 81.2968 72.6242C81.2776 72.7201 82.0835 73.2382 83.0812 73.7754C84.079 74.3126 86.1128 75.4255 87.5902 76.2314C89.0677 77.0181 90.4683 77.728 90.6986 77.8047C90.9864 77.8623 91.1399 77.8239 91.1399 77.6704C91.1399 77.5361 90.5835 76.6919 89.8927 75.8093C89.202 74.9075 87.7821 73.0271 86.7268 71.6264C85.6715 70.2257 84.7121 69.0361 84.6162 68.9786C84.5011 68.9402 84.3668 69.2472 84.2708 69.6885C84.1941 70.1106 84.0214 70.5519 83.8871 70.6479C83.7336 70.763 82.1218 69.5158 78.6106 66.5418C75.8476 64.2009 68.7674 58.2144 62.8769 53.2065C57.0056 48.2178 52.0553 44.0734 51.9018 44.0158C51.6715 43.9007 51.6331 44.0158 51.7099 44.5339C51.7674 44.8984 51.9593 45.3781 52.1512 45.6084ZM32.7144 54.3194C27.6489 58.9052 21.2787 64.6614 18.5541 67.1174C15.1004 70.2449 13.5462 71.5305 13.3735 71.4154C13.2584 71.3194 13.0857 70.8781 12.9898 70.456C12.913 70.0147 12.7595 69.6693 12.6636 69.6693C12.5485 69.6693 11.4164 71.1659 10.1117 73.0271C8.82614 74.8883 7.31034 77.0372 6.7539 77.8239C6.21666 78.6106 5.75616 79.3397 5.75616 79.4549C5.75616 79.5508 5.87129 79.6467 5.98641 79.6467C6.12072 79.6467 6.92659 79.2246 7.77083 78.7257C8.61508 78.2077 10.8024 76.8454 12.6252 75.6941C14.448 74.5429 15.9446 73.526 15.9255 73.4492C15.9255 73.3725 15.6952 73.2573 15.3882 73.219C15.1004 73.1614 14.755 72.9887 14.6207 72.8352C14.4288 72.5858 14.4864 72.4323 15.0045 71.895C15.3498 71.5305 22.1422 65.3905 30.0665 58.272C40.0248 49.3307 44.4954 45.1862 44.4571 44.956C44.4379 44.7641 44.2268 44.5914 43.9966 44.553C43.7279 44.5147 43.2866 44.7641 42.7686 45.2246C42.3081 45.6275 37.7799 49.7144 32.7144 54.3194ZM46.1839 48.6975C45.8961 49.0429 45.4932 49.9063 45.3013 50.6163C45.0902 51.3262 44.7449 52.0553 44.5338 52.2472C44.3036 52.4391 44.0349 52.535 43.939 52.4966C43.8239 52.4391 43.7471 52.1512 43.7471 51.8634C43.7471 51.5756 43.939 50.7889 44.1693 50.1366C44.5146 49.1772 44.553 48.8894 44.3611 48.6975C44.1693 48.5056 43.9774 48.6016 43.3442 49.2156C42.9029 49.6377 42.4232 50.2709 42.2889 50.6163C42.1354 50.9616 42.0203 51.5756 42.0203 51.9977C42.0203 52.4391 42.1546 53.0914 42.3273 53.4944C42.5 53.8973 42.7878 54.4345 42.9988 54.684C43.2099 54.9526 43.3826 55.3747 43.3634 55.605C43.3634 55.8352 43.2291 56.526 43.0564 57.14C42.9029 57.7539 42.8261 58.3104 42.9221 58.4063C42.9988 58.4831 43.3634 58.4255 43.6896 58.2528C44.0349 58.0993 44.3995 57.7539 44.4954 57.5237C44.6106 57.2935 44.8216 56.6027 44.9751 55.9887C45.1478 55.3747 45.3589 54.8375 45.474 54.7799C45.5699 54.7415 45.8769 54.2619 46.1455 53.7438C46.4142 53.2065 46.7212 52.1512 46.8363 51.3837C46.9514 50.6163 47.1817 49.4075 47.3735 48.6783C47.5654 47.9492 47.6997 47.3352 47.6805 47.2968C47.6614 47.2777 47.4311 47.4312 47.1817 47.6614C46.9322 47.8916 46.4909 48.3521 46.1839 48.6975ZM50.0406 51.5372C50.2516 51.9402 50.8273 52.8036 51.3069 53.4368C51.8058 54.07 52.3814 55.0677 52.6117 55.6433L53.0338 56.6986C53.9548 53.763 54.1083 52.9763 54.0507 52.2856C54.0124 51.7675 53.8397 51.0192 53.667 50.6163C53.4367 50.1366 53.2065 49.8871 52.9571 49.8871C52.746 49.8871 52.5349 49.9831 52.4774 50.0982C52.4198 50.1941 52.1704 50.2901 51.9018 50.2901C51.5564 50.2901 51.211 50.0214 50.6546 49.3115C50.2325 48.7935 49.7911 48.3521 49.676 48.3521C49.5225 48.3521 49.4842 48.7359 49.5417 49.5609C49.5993 50.2133 49.8103 51.0959 50.0406 51.5372ZM48.4864 56.8138C48.6783 56.8138 49.1196 56.9865 49.4458 57.1975C49.7911 57.4086 50.2516 57.8499 50.4627 58.1953C50.7121 58.579 50.8465 59.1546 50.8465 59.7302C50.8465 60.3059 50.7313 60.7472 50.5395 60.9391C50.386 61.0926 49.9638 61.2077 49.6377 61.2077C49.2923 61.2077 48.851 61.0542 48.6207 60.8815C48.4097 60.6896 48.0259 60.2483 47.8148 59.8838C47.5462 59.4616 47.3927 58.886 47.3927 58.3871C47.3927 57.8307 47.5079 57.447 47.7765 57.1783C47.9875 56.9673 48.3137 56.8138 48.4864 56.8138Z" fill="white"/>
<path d="M82.0949 39.9723L82.7991 39.6905L82.6879 38.9402C82.4259 37.1724 82.029 35.4481 81.5051 33.7778L81.2796 33.059L80.5278 33.107L76.588 33.3585C75.981 31.7833 75.2427 30.2729 74.3861 28.84L77.0286 25.9639L77.5458 25.4008L77.1129 24.7706C76.1069 23.3062 74.9888 21.9243 73.7729 20.6359L73.2599 20.0923L72.6071 20.4563L69.1698 22.3725C67.9412 21.2212 66.6146 20.1719 65.203 19.2376L66.3218 15.5104L66.5405 14.7818L65.8812 14.4023C64.3473 13.5193 62.7388 12.7482 61.0652 12.1036L60.3664 11.8345L59.9352 12.4466L57.6805 15.6468C56.0806 15.1413 54.4219 14.7652 52.7191 14.5306L52.0919 10.6885L51.9701 9.94309L51.217 9.88586C50.3351 9.81884 49.445 9.78473 48.5444 9.78473C47.6455 9.78473 46.754 9.81884 45.8716 9.88585L45.1182 9.94307L44.9966 10.6888L44.3706 14.5306C42.6667 14.7652 41.0087 15.1413 39.4088 15.6468L37.1539 12.4466L36.7225 11.8343L36.0237 12.1037C34.3507 12.7487 32.7416 13.5185 31.2075 14.4025L30.5488 14.7821L30.7673 15.5104L31.8857 19.2375C30.4739 20.1717 29.1474 21.2217 27.9189 22.3726L24.4814 20.4563L23.8286 20.0923L23.3156 20.6359C22.0998 21.9243 20.9816 23.3063 19.9761 24.7708L19.5434 25.4009L20.0605 25.9638L22.7025 28.84C21.8459 30.273 21.1079 31.7834 20.5006 33.3585L16.5607 33.107L15.8091 33.059L15.5835 33.7776C15.059 35.448 14.6621 37.1724 14.4001 38.9402L14.2889 39.6905L14.9931 39.9723L18.6444 41.4339C18.5741 42.2592 18.5377 43.0941 18.5377 43.938C18.5377 44.7824 18.5745 45.6173 18.6446 46.4423L14.9931 47.9037L14.2889 48.1856L14.4001 48.9359C14.6621 50.7039 15.0597 52.4284 15.5834 54.0982L15.8089 54.8171L16.5607 54.7691L20.5006 54.5177C21.1079 56.0929 21.8459 57.6033 22.7026 59.0364L20.0604 61.9136L19.5433 62.4767L19.9763 63.1068C20.9816 64.5699 22.0997 65.9524 23.3156 67.2408L23.8286 67.7844L24.4814 67.4205L27.9189 65.5042C29.1475 66.6551 30.474 67.7047 31.8857 68.6388L30.7673 72.3664L30.5488 73.0948L31.2078 73.4744C32.7413 74.3575 34.3504 75.1287 36.0239 75.7733L36.7226 76.0424L37.1539 75.4303L39.4089 72.23C41.0089 72.7354 42.6668 73.111 44.3705 73.3457L44.9966 77.188L45.1182 77.9337L45.8715 77.9909C46.754 78.058 47.6449 78.0921 48.5444 78.0921C49.4444 78.0921 50.3352 78.058 51.2171 77.9909L51.9702 77.9336L52.0919 77.1882L52.7191 73.3456C54.4218 73.111 56.0805 72.7354 57.6804 72.23L59.9352 75.4303L60.3664 76.0424L61.0652 75.7733C62.7387 75.1287 64.3472 74.3582 65.8812 73.475L66.5405 73.0955L66.3218 72.3669L65.2031 68.639C66.6152 67.7052 67.9418 66.6552 69.1699 65.5043L72.6071 67.4205L73.2599 67.7844L73.7729 67.2408C74.9888 65.9525 76.1069 64.5706 77.1128 63.1068L77.5459 62.4766L77.0286 61.9135L74.3855 59.0364C75.2427 57.6034 75.981 56.093 76.588 54.5177L80.5278 54.7691L81.2794 54.817L81.505 54.0986C82.0296 52.4281 82.4259 50.7035 82.6879 48.9359L82.7991 48.1856L82.0949 47.9037L78.4439 46.4423C78.5139 45.6172 78.5503 44.7821 78.5503 43.938C78.5503 43.0941 78.5139 42.2592 78.4439 41.4339L82.0949 39.9723ZM48.5449 67.9959C35.1002 67.9959 24.2178 57.2149 24.2178 43.9386C24.2178 30.6623 35.1007 19.8808 48.5449 19.8808C61.9909 19.8808 72.8732 30.6623 72.8732 43.9386C72.8732 57.2149 61.9909 67.9959 48.5449 67.9959Z" fill="#CBA43A" stroke="#72674B" stroke-width="1.92029"/>
</svg>
